<?xml version="1.0" encoding="UTF-8" standalone="no"?>
<svg
   xmlns:dc="http://purl.org/dc/elements/1.1/"
   xmlns:cc="http://creativecommons.org/ns#"
   xmlns:rdf="http://www.w3.org/1999/02/22-rdf-syntax-ns#"
   xmlns:svg="http://www.w3.org/2000/svg"
   xmlns="http://www.w3.org/2000/svg"
   viewBox="0 0 570.35999 334.07999"
   height="334.07999"
   width="570.35999"
   xml:space="preserve"
   id="svg2"
   version="1.1"><metadata
     id="metadata8"><rdf:RDF><cc:Work
         rdf:about=""><dc:format>image/svg+xml</dc:format><dc:type
           rdf:resource="http://purl.org/dc/dcmitype/StillImage" /></cc:Work></rdf:RDF></metadata><defs
     id="defs6"><clipPath
       id="clipPath20"
       clipPathUnits="userSpaceOnUse"><path
         id="path18"
         d="M 0,2505.62 V 0 h 4277.69 v 2505.62 z" /></clipPath></defs><g
     transform="matrix(1.3333333,0,0,-1.3333333,0,334.08)"
     id="g10"><g
       transform="scale(0.1)"
       id="g12"><g
         id="g14"><g
           clip-path="url(#clipPath20)"
           id="g16"><path
             id="path22"
             style="fill:#a7aaa8;fill-opacity:1;fill-rule:nonzero;stroke:none"
             d="m 3892.71,1775.86 c 27.39,-59.89 1.05,-130.65 -58.86,-158.04 -59.89,-27.39 -130.62,-1.05 -158.04,58.86 -27.36,59.9 -1.03,130.64 58.86,158.04 59.89,27.4 130.68,1.05 158.04,-58.86" /><path
             id="path24"
             style="fill:#a7aaa8;fill-opacity:1;fill-rule:nonzero;stroke:none"
             d="m 3903.56,1289.3 c 0,-65.86 -53.4,-119.26 -119.27,-119.26 -65.86,0 -119.25,53.4 -119.25,119.26 0,65.86 53.39,119.26 119.25,119.26 65.87,0 119.27,-53.4 119.27,-119.26" /><path
             id="path26"
             style="fill:#a7aaa8;fill-opacity:1;fill-rule:nonzero;stroke:none"
             d="m 3903.56,852.328 c 0,-65.848 -53.4,-119.238 -119.27,-119.238 -65.86,0 -119.25,53.39 -119.25,119.238 0,65.883 53.39,119.274 119.25,119.274 65.87,0 119.27,-53.391 119.27,-119.274" /><path
             id="path28"
             style="fill:#a7aaa8;fill-opacity:1;fill-rule:nonzero;stroke:none"
             d="m 3155.29,1289.3 c 0,-65.86 -53.37,-119.26 -119.25,-119.26 -65.85,0 -119.24,53.4 -119.24,119.26 0,65.86 53.39,119.26 119.24,119.26 65.88,0 119.25,-53.4 119.25,-119.26" /><path
             id="path30"
             style="fill:#a7aaa8;fill-opacity:1;fill-rule:nonzero;stroke:none"
             d="m 4266.85,1994.37 c 27.41,-59.89 1.05,-130.65 -58.86,-158.05 -59.89,-27.39 -130.65,-1.03 -158.03,58.86 -27.4,59.89 -1.04,130.65 58.85,158.04 59.9,27.4 130.63,1.05 158.04,-58.85" /><path
             id="path32"
             style="fill:#a7aaa8;fill-opacity:1;fill-rule:nonzero;stroke:none"
             d="m 4049.96,683.449 c -27.4,-59.89 -1.04,-130.621 58.85,-158.019 59.9,-27.41 130.63,-1.051 158.04,58.84 27.41,59.898 1.05,130.66 -58.86,158.039 -59.89,27.41 -130.65,1.05 -158.03,-58.86" /><path
             id="path34"
             style="fill:#a7aaa8;fill-opacity:1;fill-rule:nonzero;stroke:none"
             d="m 4277.69,1507.81 c 0,-65.87 -53.42,-119.25 -119.27,-119.25 -65.85,0 -119.27,53.38 -119.27,119.25 0,65.87 53.42,119.25 119.27,119.25 65.85,0 119.27,-53.38 119.27,-119.25" /><path
             id="path36"
             style="fill:#a7aaa8;fill-opacity:1;fill-rule:nonzero;stroke:none"
             d="m 4277.69,1070.82 c 0,-65.86 -53.42,-119.242 -119.27,-119.242 -65.85,0 -119.27,53.382 -119.27,119.242 0,65.9 53.42,119.27 119.27,119.27 65.85,0 119.27,-53.37 119.27,-119.27" /><path
             id="path38"
             style="fill:#a7aaa8;fill-opacity:1;fill-rule:nonzero;stroke:none"
             d="m 3529.42,1507.81 c 0,-65.87 -53.37,-119.25 -119.24,-119.25 -65.88,0 -119.25,53.38 -119.25,119.25 0,65.87 53.37,119.25 119.25,119.25 65.87,0 119.24,-53.38 119.24,-119.25" /><path
             id="path40"
             style="fill:#a7aaa8;fill-opacity:1;fill-rule:nonzero;stroke:none"
             d="m 3529.42,1070.82 c 0,-65.86 -53.37,-119.242 -119.24,-119.242 -65.88,0 -119.25,53.382 -119.25,119.242 0,65.9 53.37,119.27 119.25,119.27 65.87,0 119.24,-53.37 119.24,-119.27" /><path
             id="path42"
             style="fill:#7bcb29;fill-opacity:1;fill-rule:nonzero;stroke:none"
             d="m 230.449,1183.42 v 202.38 c -3.605,0 -44.648,6.47 -74.898,6.47 -49.696,0 -72.0158,-32.41 -72.0158,-111.62 0,-87.13 22.3198,-111.63 66.2538,-113.09 35.285,0.76 80.66,15.86 80.66,15.86 z m 82.821,-84.25 h -82.821 v 17.28 c 0,0 -51.137,-25.21 -93.629,-25.21 -95.7731,0 -136.82,54.03 -136.82,190.12 0,128.91 47.5352,185.8 149.789,185.8 28.078,0 77.055,-8.65 80.66,-9.36 v 145.48 h 82.821 v -504.11" /><path
             id="path44"
             style="fill:#7bcb29;fill-opacity:1;fill-rule:nonzero;stroke:none"
             d="m 424.898,1458.51 h 82.106 v -38.16 c 0,0 47.531,35.28 108.738,46.81 v -87.87 c -64.797,-12.95 -108.738,-37.43 -108.738,-37.43 v -242.69 h -82.106 v 359.34" /><path
             id="path46"
             style="fill:#7bcb29;fill-opacity:1;fill-rule:nonzero;stroke:none"
             d="m 904.535,1280.65 c 0,75.61 -19.441,111.62 -77.773,111.62 -61.207,0 -78.504,-34.57 -78.504,-111.62 0,-77.79 14.414,-115.23 78.504,-115.23 64.078,0 77.773,38.89 77.773,115.23 z m 83.551,0 c 0,-115.95 -37.473,-189.41 -161.324,-189.41 -123.883,0 -162.039,72 -162.039,189.41 0,115.21 40.332,186.51 162.039,186.51 119.547,0 161.324,-72.01 161.324,-186.51" /><path
             id="path48"
             style="fill:#7bcb29;fill-opacity:1;fill-rule:nonzero;stroke:none"
             d="m 1074.52,1458.51 h 82.09 v -359.34 h -82.09 z m 0,145.48 h 82.09 v -87.13 h -82.09 v 87.13" /><path
             id="path50"
             style="fill:#7bcb29;fill-opacity:1;fill-rule:nonzero;stroke:none"
             d="m 1472.74,1183.42 v 202.38 c -3.59,0 -44.63,6.47 -74.88,6.47 -49.7,0 -72.02,-32.41 -72.02,-111.62 0,-87.13 22.32,-111.63 66.26,-113.09 35.29,0.76 80.64,15.86 80.64,15.86 z m 82.84,-84.25 h -82.84 v 17.28 c 0,0 -51.12,-25.21 -93.6,-25.21 -95.79,0 -136.85,54.03 -136.85,190.12 0,128.91 47.54,185.8 149.81,185.8 28.08,0 77.05,-8.65 80.64,-9.36 v 145.48 h 82.84 v -504.11" /><path
             id="path52"
             style="fill:#7bcb29;fill-opacity:1;fill-rule:nonzero;stroke:none"
             d="m 1903.43,1453.48 -2.88,-71.29 c 0,0 -56.91,6.48 -84.28,6.48 -73.45,0 -90.01,-27.38 -90.01,-105.14 0,-86.43 15.13,-114.51 90.74,-114.51 27.38,0 84.27,6.47 84.27,6.47 l 2.16,-71.3 c 0,0 -73.47,-12.95 -111.62,-12.95 -109.47,0 -149.09,55.45 -149.09,192.29 0,128.9 43.92,183.63 151.24,183.63 38.89,0 109.47,-13.68 109.47,-13.68" /><path
             id="path54"
             style="fill:#7bcb29;fill-opacity:1;fill-rule:nonzero;stroke:none"
             d="m 2202.32,1280.65 c 0,75.61 -19.47,111.62 -77.79,111.62 -61.23,0 -78.51,-34.57 -78.51,-111.62 0,-77.79 14.41,-115.23 78.51,-115.23 64.09,0 77.79,38.89 77.79,115.23 z m 83.5,0 c 0,-115.95 -37.43,-189.41 -161.29,-189.41 -123.87,0 -162.05,72 -162.05,189.41 0,115.21 40.34,186.51 162.05,186.51 119.54,0 161.29,-72.01 161.29,-186.51" /><path
             id="path56"
             style="fill:#7bcb29;fill-opacity:1;fill-rule:nonzero;stroke:none"
             d="m 2373.69,1099.17 v 359.34 h 82.11 v -17.99 c 0,0 56.87,26.64 96.48,26.64 100.12,0 125.32,-59.05 125.32,-180.04 v -187.95 h -82.09 v 187.24 c 0,68.42 -8.63,103.69 -59.04,103.69 -31.69,0 -80.67,-16.56 -80.67,-16.56 v -274.37 h -82.11" /><path
             id="path58"
             style="fill:#7bcb29;fill-opacity:1;fill-rule:nonzero;stroke:none"
             d="m 2123.15,2501.21 v -307.52 c 0,0 304.79,0 457.58,0 88.84,0 383.47,-70.72 565.88,-412.12 l 313.3,153.28 c -202.63,383.47 -518.72,570.77 -842.96,570.77 -283.74,0 -493.8,-4.41 -493.8,-4.41" /><path
             id="path60"
             style="fill:#7bcb29;fill-opacity:1;fill-rule:nonzero;stroke:none"
             d="m 2123.15,0 v 343.691 c 0,0 304.79,0 457.58,0 88.84,0 383.47,52.629 565.88,394.028 l 313.3,-162.301 C 3257.28,191.961 2941.19,0.128906 2616.95,0.128906 2333.21,0.128906 2123.15,0 2123.15,0" /></g></g></g></g></svg>