<?xml version="1.0" encoding="UTF-8" standalone="no"?>
<svg
   xmlns:dc="http://purl.org/dc/elements/1.1/"
   xmlns:cc="http://creativecommons.org/ns#"
   xmlns:rdf="http://www.w3.org/1999/02/22-rdf-syntax-ns#"
   xmlns:svg="http://www.w3.org/2000/svg"
   xmlns="http://www.w3.org/2000/svg"
   viewBox="0 0 2533.3333 586.66669"
   height="586.66669"
   width="2533.3333"
   xml:space="preserve"
   id="svg2"
   version="1.1"><metadata
     id="metadata8"><rdf:RDF><cc:Work
         rdf:about=""><dc:format>image/svg+xml</dc:format><dc:type
           rdf:resource="http://purl.org/dc/dcmitype/StillImage" /></cc:Work></rdf:RDF></metadata><defs
     id="defs6"><clipPath
       id="clipPath20"
       clipPathUnits="userSpaceOnUse"><path
         id="path18"
         d="M -20,-22 H 458 V 440 H -20 Z" /></clipPath><clipPath
       id="clipPath26"
       clipPathUnits="userSpaceOnUse"><path
         id="path24"
         d="M 122,243 H 316 V 438 H 122 Z" /></clipPath><clipPath
       id="clipPath30"
       clipPathUnits="userSpaceOnUse"><path
         id="path28"
         d="m 218.9547,311.807 -21.2353,-42.4277 c -9.2041,-18.3896 -31.5732,-25.8359 -49.9628,-16.6318 -18.3896,9.204 -25.8359,31.5731 -16.6318,49.9627 l 54.5326,108.9553 c 13.7269,27.4261 52.8677,27.4261 66.5946,0 l 54.5326,-108.9553 c 9.204,-18.3896 1.7577,-40.7587 -16.6319,-49.9627 -18.3896,-9.2041 -40.7587,-1.7578 -49.9628,16.6318 z" /></clipPath><clipPath
       id="clipPath34"
       clipPathUnits="userSpaceOnUse"><path
         id="path32"
         d="M 127,248 H 311 V 433 H 127 Z" /></clipPath><clipPath
       id="clipPath56"
       clipPathUnits="userSpaceOnUse"><path
         id="path54"
         d="M -20,-22 H 458 V 440 H -20 Z" /></clipPath><clipPath
       id="clipPath62"
       clipPathUnits="userSpaceOnUse"><path
         id="path60"
         d="M 233,141 H 442 V 327 H 233 Z" /></clipPath><clipPath
       id="clipPath66"
       clipPathUnits="userSpaceOnUse"><path
         id="path64"
         d="m 267.983,249.3838 c -20.3337,3.0709 -34.328,22.0441 -31.2571,42.3779 3.0709,20.3338 22.0441,34.3281 42.3779,31.2572 l 120.474,-18.1946 c 30.3257,-4.5799 42.4208,-41.805 20.5789,-63.3352 l -86.7711,-85.5326 c -14.6453,-14.4363 -38.2206,-14.2668 -52.6569,0.3785 -14.4363,14.6453 -14.2669,38.2206 0.3785,52.6569 l 33.7891,33.3069 z" /></clipPath><clipPath
       id="clipPath70"
       clipPathUnits="userSpaceOnUse"><path
         id="path68"
         d="M 226,135 H 458 V 367 H 226 Z" /></clipPath><clipPath
       id="clipPath92"
       clipPathUnits="userSpaceOnUse"><path
         id="path90"
         d="M -20,-22 H 458 V 440 H -20 Z" /></clipPath><clipPath
       id="clipPath98"
       clipPathUnits="userSpaceOnUse"><path
         id="path96"
         d="M 176,15 H 369 V 223 H 176 Z" /></clipPath><clipPath
       id="clipPath102"
       clipPathUnits="userSpaceOnUse"><path
         id="path100"
         d="m 278.2498,129.6667 -7.7587,46.8065 c -3.3628,20.2875 10.3573,39.46 30.6448,42.8229 20.2875,3.3628 39.46,-10.3573 42.8228,-30.6448 L 363.8832,68.45122 C 368.8986,38.19455 337.233,15.18814 310.007,29.30787 l -108.16,56.09319 c -18.2554,9.46747 -25.3794,31.94134 -15.9119,50.19664 9.4674,18.2554 31.9413,25.3795 50.1967,15.912 z" /></clipPath><clipPath
       id="clipPath106"
       clipPathUnits="userSpaceOnUse"><path
         id="path104"
         d="M 166,0 H 424 V 235 H 166 Z" /></clipPath><clipPath
       id="clipPath128"
       clipPathUnits="userSpaceOnUse"><path
         id="path126"
         d="M -20,-22 H 458 V 440 H -20 Z" /></clipPath><clipPath
       id="clipPath134"
       clipPathUnits="userSpaceOnUse"><path
         id="path132"
         d="M 68,15 H 262 V 223 H 68 Z" /></clipPath><clipPath
       id="clipPath138"
       clipPathUnits="userSpaceOnUse"><path
         id="path136"
         d="m 159.3107,129.6667 42.1181,21.843 c 18.2554,9.4675 40.7292,2.3434 50.1967,-15.912 9.4675,-18.2553 2.3435,-40.72917 -15.9119,-50.19664 L 127.5535,29.30787 C 100.3276,15.18814 68.66197,38.19455 73.67735,68.45122 L 93.60184,188.6513 c 3.36288,20.2875 22.53536,34.0076 42.82286,30.6448 20.2875,-3.3629 34.0076,-22.5354 30.6447,-42.8229 z" /></clipPath><clipPath
       id="clipPath142"
       clipPathUnits="userSpaceOnUse"><path
         id="path140"
         d="M 14,0 H 271 V 235 H 14 Z" /></clipPath><clipPath
       id="clipPath164"
       clipPathUnits="userSpaceOnUse"><path
         id="path162"
         d="M -20,-22 H 458 V 440 H -20 Z" /></clipPath><clipPath
       id="clipPath170"
       clipPathUnits="userSpaceOnUse"><path
         id="path168"
         d="M -5,141 H 205 V 327 H -5 Z" /></clipPath><clipPath
       id="clipPath174"
       clipPathUnits="userSpaceOnUse"><path
         id="path172"
         d="m 156.8102,208.9919 c 14.6453,-14.4363 14.8148,-38.0116 0.3785,-52.6569 -14.4363,-14.6453 -38.0116,-14.8148 -52.6569,-0.3785 l -86.77113,85.5326 c -21.841947,21.5302 -9.746762,58.7553 20.57887,63.3352 l 120.47406,18.1946 c 20.3338,3.0709 39.307,-10.9234 42.3779,-31.2572 3.0709,-20.3338 -10.9234,-39.307 -31.2572,-42.3779 l -46.9132,-7.085 z" /></clipPath><clipPath
       id="clipPath178"
       clipPathUnits="userSpaceOnUse"><path
         id="path176"
         d="M 0,135 H 212 V 367 H 0 Z" /></clipPath><clipPath
       id="clipPath200"
       clipPathUnits="userSpaceOnUse"><path
         style="clip-rule:evenodd"
         id="path198"
         d="m 535.07,276.7287 h 48.3942 c 2.8001,0 5.07,-2.2699 5.07,-5.07 v -22.015 c 2.7099,3.8302 5.4198,7.6604 8.9427,11.4906 3.5229,3.8302 7.7232,7.25 12.6011,10.2595 4.8779,3.0094 10.4332,5.4717 16.666,7.3868 6.2328,1.9151 13.0076,2.8727 20.3244,2.8727 13.8206,0 26.0829,-2.8727 36.7871,-8.618 10.7042,-5.7453 18.7661,-14.7736 24.186,-27.085 7.0458,12.8586 15.582,22.0236 25.6087,27.4954 10.0267,5.4717 22.3567,8.2076 36.9903,8.2076 13.2787,0 24.457,-2.2571 33.5353,-6.7713 9.0782,-4.5142 16.2594,-10.6698 21.5438,-18.4671 5.2844,-7.7972 9.0782,-16.9622 11.3816,-27.4953 2.3035,-10.5332 3.4552,-21.8185 3.4552,-33.8563 V 82.35455 c 0,-2.80009 -2.2699,-5.07 -5.07,-5.07 h -50.8331 c -2.8001,0 -5.07,2.26991 -5.07,5.07 V 193.4218 c 0,9.302 -1.9647,17.3043 -5.8941,24.0072 -3.9294,6.7028 -10.9074,10.0542 -20.9341,10.0542 -7.0458,0 -12.9398,-1.1627 -17.6822,-3.4882 -4.7424,-2.3255 -8.5362,-5.5401 -11.3816,-9.6439 -2.8455,-4.1038 -4.8779,-8.8915 -6.0974,-14.3633 -1.2194,-5.4717 -1.8292,-11.2169 -1.8292,-17.2359 V 82.35455 c 0,-2.80009 -2.2699,-5.07 -5.07,-5.07 h -50.8331 c -2.8,0 -5.07,2.26991 -5.07,5.07 V 182.7519 c 0,3.5567 -0.1355,7.934 -0.4065,13.1322 -0.2709,5.1981 -1.2194,10.1226 -2.8454,14.7736 -1.6259,4.651 -4.2681,8.6179 -7.9265,11.901 -3.6584,3.283 -9.0104,4.9245 -16.0562,4.9245 -7.8588,0 -14.2271,-1.4363 -19.1049,-4.3089 -4.8779,-2.8727 -8.604,-6.7029 -11.1784,-11.4907 -2.5745,-4.7877 -4.2681,-10.191 -5.0811,-16.2099 -0.813,-6.0189 -1.2195,-12.3114 -1.2195,-18.8775 V 82.35455 c 0,-2.80009 -2.2699,-5.07 -5.07,-5.07 H 535.07 c -2.8001,0 -5.07,2.26991 -5.07,5.07 V 271.6587 c 0,2.8001 2.2699,5.07 5.07,5.07 z M 1055.118,107.582 c -2.493,-2.8634 -4.544,-5.0633 -6.154,-6.5998 -7.857,-7.50103 -16.951,-13.62191 -27.282,-18.36273 C 1006.778,75.77979 991.3314,72.36 975.3428,72.36 c -15.1756,0 -29.4702,2.46225 -42.8844,7.38682 -13.4141,4.92457 -25.0667,11.96934 -34.9579,21.13448 -9.8913,9.1652 -17.6822,20.1769 -23.373,33.0355 -5.6909,12.8586 -8.5363,27.2218 -8.5363,43.0898 0,15.8681 2.8454,30.2312 8.5363,43.0898 5.6908,12.8586 13.4817,23.8703 23.373,33.0355 9.8912,9.1652 21.5438,16.21 34.9579,21.1345 13.4142,4.9246 27.7088,7.3869 42.8844,7.3869 14.0917,0 26.8962,-2.4623 38.4132,-7.3869 11.517,-4.9245 21.273,-11.9693 29.267,-21.1345 7.994,-9.1652 14.159,-20.1769 18.495,-33.0355 4.336,-12.8586 6.504,-27.2217 6.504,-43.0898 v -12.5278 c 0,-3.7334 -3.027,-6.76 -6.76,-6.76 H 926.5643 c 2.439,-11.7642 7.7233,-21.1345 15.853,-28.1109 8.1298,-6.9765 18.1564,-10.4647 30.0801,-10.4647 10.0268,0 18.4952,2.2571 25.4055,6.7713 4.2661,2.7865 8.1961,6.0682 11.7901,9.8451 0.882,0.927 1.981,2.1962 3.296,3.8079 v 0 c 1.711,2.0975 4.769,2.4803 6.945,0.8694 l 34.377,-25.4511 c 2.25,-1.6661 2.724,-4.8411 1.058,-7.0915 -0.08,-0.1074 -0.163,-0.2116 -0.251,-0.3123 z m 645.569,0 c -2.493,-2.8634 -4.544,-5.0633 -6.153,-6.5998 -7.857,-7.50103 -16.951,-13.62191 -27.282,-18.36273 -14.905,-6.83968 -30.351,-10.25947 -46.34,-10.25947 -15.175,0 -29.47,2.46225 -42.884,7.38682 -13.414,4.92457 -25.067,11.96934 -34.958,21.13448 -9.891,9.1652 -17.682,20.1769 -23.373,33.0355 -5.691,12.8586 -8.536,27.2218 -8.536,43.0898 0,15.8681 2.845,30.2312 8.536,43.0898 5.691,12.8586 13.482,23.8703 23.373,33.0355 9.891,9.1652 21.544,16.21 34.958,21.1345 13.414,4.9246 27.709,7.3869 42.884,7.3869 14.092,0 26.896,-2.4623 38.413,-7.3869 11.518,-4.9245 21.273,-11.9693 29.267,-21.1345 7.995,-9.1652 14.16,-20.1769 18.496,-33.0355 4.336,-12.8586 6.503,-27.2217 6.503,-43.0898 v -12.5278 c 0,-3.7334 -3.026,-6.76 -6.76,-6.76 h -134.697 c 2.439,-11.7642 7.723,-21.1345 15.853,-28.1109 8.13,-6.9765 18.156,-10.4647 30.08,-10.4647 10.027,0 18.495,2.2571 25.405,6.7713 4.266,2.7865 8.196,6.0682 11.79,9.8451 0.883,0.927 1.981,2.1962 3.296,3.8079 v 0 c 1.712,2.0975 4.769,2.4803 6.945,0.8694 l 34.377,-25.4511 c 2.251,-1.6661 2.724,-4.8411 1.058,-7.0915 -0.079,-0.1074 -0.163,-0.2116 -0.251,-0.3123 z m -693.638,91.9955 c 0.271,10.3963 -3.117,19.2877 -10.1623,26.6746 -7.0459,7.3869 -16.124,11.0802 -27.2347,11.0802 -6.7748,0 -12.7366,-1.0943 -17.8854,-3.283 -5.1489,-2.1887 -9.5525,-4.9929 -13.2109,-8.4128 -3.6584,-3.4198 -6.5038,-7.3868 -8.5362,-11.901 -2.0325,-4.5142 -3.1842,-9.2335 -3.4552,-14.158 z m 91.892,77.1512 h 50.833 c 2.8,0 5.07,-2.2699 5.07,-5.07 V 82.35455 c 0,-2.80009 -2.27,-5.07 -5.07,-5.07 h -50.833 c -2.8,0 -5.07,2.26991 -5.07,5.07 V 271.6587 c 0,2.8001 2.27,5.07 5.07,5.07 z m 25.547,18.3826 c -19.644,0 -35.569,16.0928 -35.569,35.9443 0,19.8516 15.925,35.9444 35.569,35.9444 19.644,0 35.569,-16.0928 35.569,-35.9444 0,-19.8515 -15.925,-35.9443 -35.569,-35.9443 z m 174.084,-77.0668 c -8.943,11.2171 -20.731,16.8256 -35.364,16.8256 -5.149,0 -10.163,-1.2312 -15.04,-3.6935 -4.878,-2.4622 -7.317,-6.7028 -7.317,-12.7217 0,-4.9246 2.506,-8.5496 7.52,-10.875 5.013,-2.3255 11.381,-4.3774 19.105,-6.1557 7.723,-1.7783 15.988,-3.6934 24.796,-5.7453 8.807,-2.0519 17.072,-5.2665 24.795,-9.6439 7.724,-4.3774 14.092,-10.3279 19.105,-17.8515 5.014,-7.5237 7.52,-17.5779 7.52,-30.1629 0,-12.8586 -2.777,-23.4599 -8.333,-31.8043 -5.555,-8.34445 -12.669,-15.04724 -21.34,-20.10861 -8.672,-5.06136 -18.428,-8.61794 -29.268,-10.66985 -10.839,-2.0519 -21.543,-3.07784 -32.112,-3.07784 -13.821,0 -27.777,1.98348 -41.868,5.95049 -14.092,3.96702 -26.015,11.01179 -35.771,21.13452 l 36.99,41.44829 c 5.691,-7.1133 11.992,-12.5166 18.902,-16.21 6.91,-3.6934 14.972,-5.5401 24.186,-5.5401 7.046,0 13.414,1.0259 19.105,3.0778 5.691,2.0519 8.536,5.8137 8.536,11.2855 0,5.1981 -2.507,9.0967 -7.52,11.6958 -5.013,2.599 -11.382,4.7877 -19.105,6.566 -7.723,1.7783 -15.988,3.6934 -24.796,5.7453 -8.807,2.0519 -17.072,5.1297 -24.795,9.2336 -7.724,4.1038 -14.092,9.9174 -19.105,17.4411 -5.014,7.5236 -7.52,17.5778 -7.52,30.1628 0,11.7643 2.371,21.8868 7.113,30.368 4.743,8.4813 10.975,15.4576 18.699,20.9294 7.723,5.4717 16.598,9.5071 26.625,12.1062 10.026,2.599 20.188,3.8986 30.486,3.8986 13.008,0 26.151,-1.9151 39.429,-5.7454 13.279,-3.8302 24.525,-10.6698 33.739,-20.5189 z m 193.942,9.4387 h -48.587 v -66.4814 c 0,-5.4717 0.271,-10.4646 0.813,-14.9788 0.542,-4.5142 1.762,-8.4127 3.659,-11.6958 1.896,-3.283 4.81,-5.8137 8.739,-7.592 3.929,-1.7783 9.146,-2.6675 15.65,-2.6675 3.252,0 7.52,0.342 12.804,1.026 1.615,0.2091 3.33,0.653 5.145,1.3318 v 0 c 2.623,0.981 5.544,-0.3497 6.525,-2.9723 0.213,-0.5681 0.322,-1.1698 0.322,-1.7763 V 82.32431 c 0,-2.26926 -1.508,-4.26215 -3.692,-4.87906 -7.426,-2.09777 -13.241,-3.38247 -17.446,-3.85411 -7.317,-0.82077 -14.498,-1.23114 -21.544,-1.23114 -10.297,0 -19.782,1.09433 -28.454,3.28303 -8.672,2.1887 -16.259,5.67689 -22.763,10.46466 -6.504,4.78778 -11.585,11.0118 -15.243,18.67221 -3.659,7.6605 -5.488,16.9623 -5.488,27.9058 v 94.7975 h -33.953 c -2.8,0 -5.07,2.27 -5.07,5.07 v 39.1055 c 0,2.8001 2.27,5.07 5.07,5.07 h 33.953 v 54.0246 c 0,2.8001 2.27,5.07 5.07,5.07 h 50.833 c 2.8,0 5.07,-2.2699 5.07,-5.07 v -54.0246 h 48.587 c 2.8,0 5.07,-2.2699 5.07,-5.07 v -39.1055 c 0,-2.8 -2.27,-5.07 -5.07,-5.07 z m 159.367,-27.9057 c 0.271,10.3963 -3.116,19.2877 -10.162,26.6746 -7.046,7.3869 -16.124,11.0802 -27.234,11.0802 -6.775,0 -12.737,-1.0943 -17.886,-3.283 -5.149,-2.1887 -9.552,-4.9929 -13.211,-8.4128 -3.658,-3.4198 -6.504,-7.3868 -8.536,-11.901 -2.032,-4.5142 -3.184,-9.2335 -3.455,-14.158 z m 91.078,77.1512 h 50.833 c 2.801,0 5.07,-2.2699 5.07,-5.07 v -26.9396 h 0.813 c 6.504,12.3115 14.227,21.5449 23.17,27.7006 8.943,6.1557 20.189,9.2336 33.739,9.2336 3.523,0 7.045,-0.1368 10.568,-0.4104 1.501,-0.1166 3.371,-0.3821 5.609,-0.7965 v 0 c 2.403,-0.445 4.147,-2.5412 4.147,-4.9853 v -45.4913 c 0,-2.8001 -2.27,-5.07 -5.07,-5.07 -0.413,0 -0.825,0.0505 -1.226,0.1504 -2.683,0.6684 -4.852,1.1374 -6.508,1.4071 -4.201,0.684 -8.604,1.0259 -13.211,1.0259 -11.653,0 -20.867,-1.6415 -27.641,-4.9245 -6.775,-3.2831 -11.992,-7.8656 -15.65,-13.7477 -3.659,-5.8821 -6.03,-12.9269 -7.114,-21.1345 -1.084,-8.2076 -1.626,-17.2359 -1.626,-27.085 V 82.35455 c 0,-2.80009 -2.269,-5.07 -5.07,-5.07 h -50.833 c -2.8,0 -5.07,2.26991 -5.07,5.07 V 271.6587 c 0,2.8001 2.27,5.07 5.07,5.07 z" /></clipPath><clipPath
       id="clipPath206"
       clipPathUnits="userSpaceOnUse"><path
         id="path204"
         d="M 530,0 H 1877 V 440 H 530 Z" /></clipPath></defs><g
     transform="matrix(1.3333333,0,0,-1.3333333,0,586.66667)"
     id="g10"><g
       id="g12" /><g
       id="g14"><g
         clip-path="url(#clipPath20)"
         id="g16"><g
           id="g22" /><g
           id="g48"><g
             id="g46"
             clip-path="url(#clipPath26)"><g
               id="g36" /><g
               id="g44"><g
                 id="g42"
                 clip-path="url(#clipPath30)"><g
                   id="g40"
                   clip-path="url(#clipPath34)"><path
                     id="path38"
                     style="fill:#2bd9d9;fill-opacity:1;fill-rule:nonzero;stroke:none"
                     d="M 122.1789,243.8016 H 315.7304 V 437.2351 H 122.1789 Z" /></g></g></g></g></g></g></g><g
       id="g50"><g
         clip-path="url(#clipPath56)"
         id="g52"><g
           id="g58" /><g
           id="g84"><g
             id="g82"
             clip-path="url(#clipPath62)"><g
               id="g72" /><g
               id="g80"><g
                 id="g78"
                 clip-path="url(#clipPath66)"><g
                   id="g76"
                   clip-path="url(#clipPath70)"><path
                     id="path74"
                     style="fill:#3dcc3d;fill-opacity:1;fill-rule:nonzero;stroke:none"
                     d="M 404.28,373.0974 464.0907,189.0189 280.1246,129.2447 220.3139,313.3231 Z" /></g></g></g></g></g></g></g><g
       id="g86"><g
         clip-path="url(#clipPath92)"
         id="g88"><g
           id="g94" /><g
           id="g120"><g
             id="g118"
             clip-path="url(#clipPath98)"><g
               id="g108" /><g
               id="g116"><g
                 id="g114"
                 clip-path="url(#clipPath102)"><g
                   id="g112"
                   clip-path="url(#clipPath106)"><path
                     id="path110"
                     style="fill:#ffd426;fill-opacity:1;fill-rule:nonzero;stroke:none"
                     d="M 430.2678,85.07668 273.6813,-28.69006 159.984,127.8009 316.5705,241.5676 Z" /></g></g></g></g></g></g></g><g
       id="g122"><g
         clip-path="url(#clipPath128)"
         id="g124"><g
           id="g130" /><g
           id="g156"><g
             id="g154"
             clip-path="url(#clipPath134)"><g
               id="g144" /><g
               id="g152"><g
                 id="g150"
                 clip-path="url(#clipPath138)"><g
                   id="g148"
                   clip-path="url(#clipPath142)"><path
                     id="path146"
                     style="fill:#f7578c;fill-opacity:1;fill-rule:nonzero;stroke:none"
                     d="M 163.8793,-28.69006 7.292774,85.07668 120.9901,241.5676 277.5766,127.8009 Z" /></g></g></g></g></g></g></g><g
       id="g158"><g
         clip-path="url(#clipPath164)"
         id="g160"><g
           id="g166" /><g
           id="g192"><g
             id="g190"
             clip-path="url(#clipPath170)"><g
               id="g180" /><g
               id="g188"><g
                 id="g186"
                 clip-path="url(#clipPath174)"><g
                   id="g184"
                   clip-path="url(#clipPath178)"><path
                     id="path182"
                     style="fill:#00aaff;fill-opacity:1;fill-rule:nonzero;stroke:none"
                     d="M -26.17338,189.0189 33.63734,373.0974 217.6035,313.3231 157.7928,129.2447 Z" /></g></g></g></g></g></g></g><g
       id="g194"><g
         clip-path="url(#clipPath200)"
         id="g196"><g
           clip-path="url(#clipPath206)"
           id="g202"><path
             id="path208"
             style="fill:#3d474d;fill-opacity:1;fill-rule:nonzero;stroke:none"
             d="M 525,67.36 H 1881.908 V 372 H 525 Z" /></g></g></g></g></svg>