<?xml version="1.0" encoding="utf-8"?>
<!-- Generator: Adobe Illustrator 19.0.0, SVG Export Plug-In . SVG Version: 6.00 Build 0)  -->
<svg version="1.1" id="Layer_1" xmlns="http://www.w3.org/2000/svg" xmlns:xlink="http://www.w3.org/1999/xlink" x="0px" y="0px"
	 viewBox="148 213.6 200 70" enable-background="new 148 213.6 200 70" xml:space="preserve" width="200" height="70">
<g>
	<path fill="#8EB927" d="M148,237c0-0.7,0.7-1.4,1.4-1.4h1.5c0.7,0,1.1,0.3,1.3,0.9l0.8,2.5c0.7-0.7,3.8-4.1,9.4-4.1
		c4.3,0,6.8,1.6,9,4.6c0.8-0.8,4.3-4.6,9.9-4.6c9,0,11.2,6.2,11.2,13.9v14.8c0,0.8-0.6,1.4-1.4,1.4h-3.6c-0.9,0-1.4-0.7-1.4-1.4v-15
		c0-4.7-1.8-7.6-5.8-7.6c-4.5,0-6.6,3-7.1,3.4c0.1,0.7,0.2,2.4,0.2,3.9v15.2c0,0.8-0.7,1.4-1.4,1.4h-3.6c-0.8,0-1.4-0.7-1.4-1.4v-15
		c0-4.8-1.7-7.6-5.8-7.6c-4.4,0-6.6,3.2-6.9,4.3v18.3c0,0.8-0.7,1.4-1.4,1.4h-3.5c-0.8,0-1.4-0.7-1.4-1.4V237z"/>
	<path fill="#8EB927" d="M196,237.5c-0.4-1,0.1-1.9,1.3-1.9h4.2c0.5,0,1.1,0.3,1.3,0.8l6.8,20.2h0.1l8.3-20.2
		c0.2-0.7,0.8-0.8,1.5-0.8h3.9c1.2,0,1.7,0.9,1.3,1.9l-18,41.8c-0.2,0.5-0.7,0.9-1.2,0.9h-4.1c-1.1,0-1.8-0.9-1.3-2l5.9-14.2
		L196,237.5z"/>
	<path fill="#8EB927" d="M228.5,258.6l1.6-2.6c0.5-0.8,1.5-1.1,2.2-0.5c3,2.5,5.3,4.4,10.2,4.4c4.4,0,7.2-2.7,7.2-5.9
		c0-3.8-3.3-6.2-9.6-8.9c-6.5-2.7-11.6-6.1-11.6-13.5c0-5,3.8-11.8,14-11.8c6.4,0,11.2,3.3,11.8,3.8c0.5,0.3,1,1.2,0.4,2.2l-1.6,2.4
		c-0.5,0.8-1.4,1.2-2.3,0.7c-2.5-1.6-4.9-3.2-8.6-3.2c-5.3,0-7.2,3.4-7.2,5.7c0,3.6,2.8,5.9,8.1,8c7.4,3,13.7,6.5,13.7,14.3
		c0,6.6-5.9,12.1-14.2,12.1c-7.8,0-12.7-4.1-13.7-5C228.3,260.1,227.8,259.7,228.5,258.6"/>
	<path fill="#8EB927" d="M261.5,237c0-0.7,0.7-1.4,1.4-1.4h3.6c0.8,0,1.4,0.7,1.4,1.4v15.7c0,4.8,2,7,5.7,7c4.3,0,6.6-3.5,6.9-4.8
		V237c0-1.2,0.6-1.4,1.6-1.4h3.2c0.8,0,1.5,0.7,1.5,1.4v26.6c0,0.8-0.7,1.4-1.5,1.4h-1.5c-0.8,0-1.1-0.5-1.4-1.2l-0.8-2.1
		c-0.7,0.7-3.3,4-9.3,4c-8.7,0-10.9-5.8-10.9-13.5V237z"/>
	<path fill="#8EB927" d="M307.2,259.7c3.9,0,6.8-2.3,6.8-2.3v-12.2c-0.6-1.1-3.1-4.1-7.1-4.1c-5,0-8.3,4.3-8.3,9.3
		C298.6,255.3,302.4,259.7,307.2,259.7 M320.4,265.2c0,9.2-5.9,13.8-13.6,13.8c-4.9,0-8.9-2.4-10.2-3.7c-0.5-0.3-0.6-1.2-0.3-1.6
		l1.5-2.8c0.4-0.8,1.2-1,2-0.5c1,0.8,3.5,2.7,6.9,2.7c3.9,0,7.3-1.9,7.3-7.9v-1.6c-0.5,0.3-3.7,2.1-7.5,2.1c-8,0-14.2-6.8-14.2-15.4
		c0-8.4,5.8-15.4,13.9-15.4c5.5,0,8.8,3,9.3,3.5l0.8-1.8c0.2-0.6,0.4-1,1.1-1h1.7c0.8,0,1.4,0.7,1.4,1.4V265.2z"/>
	<path fill="#8EB927" d="M327.3,237c0-0.7,0.7-1.4,1.4-1.4h1.5c0.6,0,1.1,0.5,1.3,1l0.8,2.7c0.5-0.8,3.6-4.3,8.9-4.3
		c2.8,0,6.3,0.8,5.3,2.7l-1.5,3.2c-0.4,0.8-1.1,1-1.8,0.7c-0.5-0.2-1.8-0.6-2.7-0.6c-4.3,0-6.7,3.4-6.9,3.9v18.7
		c0,1.3-0.8,1.4-2.1,1.4h-3c-0.8,0-1.4-0.7-1.4-1.4L327.3,237L327.3,237z"/>
</g>
</svg>
