<?xml version="1.0" standalone="no"?>
<!DOCTYPE svg PUBLIC "-//W3C//DTD SVG 20010904//EN"
 "http://www.w3.org/TR/2001/REC-SVG-20010904/DTD/svg10.dtd">
<svg version="1.0" xmlns="http://www.w3.org/2000/svg"
 width="1024.000000pt" height="1024.000000pt" viewBox="0 0 1024.000000 1024.000000"
 preserveAspectRatio="xMidYMid meet">
<metadata>
Created by potrace 1.11, written by Peter Selinger 2001-2013
</metadata>
<g transform="translate(0.000000,1024.000000) scale(0.100000,-0.100000)"
fill="#000000" stroke="none">
<path d="M5119 8102 l-37 -3 0 -368 0 -367 562 1 c481 0 575 -2 656 -16 449
-79 882 -396 1164 -854 31 -49 59 -96 63 -103 6 -10 28 -3 93 29 369 181 633
309 640 309 21 0 19 23 -6 67 -343 620 -833 1049 -1399 1224 -73 22 -216 56
-270 63 -22 3 -69 10 -105 15 -57 9 -1264 11 -1361 3z"/>
<path d="M9890 7045 c-63 -16 -88 -31 -138 -78 -176 -170 -50 -477 198 -480
197 -3 337 191 273 378 -44 130 -200 215 -333 180z"/>
<path d="M9003 6525 c-234 -53 -308 -330 -131 -495 74 -68 220 -86 313 -38 78
41 127 102 149 185 52 200 -131 393 -331 348z"/>
<path d="M8081 5999 c-18 -6 -50 -21 -70 -33 -156 -100 -178 -310 -46 -443
173 -172 464 -61 482 185 15 191 -179 344 -366 291z"/>
<path d="M9828 5977 c-137 -71 -195 -232 -134 -370 22 -49 94 -121 143 -143
47 -21 155 -26 206 -11 67 21 129 76 164 145 29 56 32 71 30 135 -4 84 -24
134 -79 189 -58 58 -112 81 -195 84 -65 3 -79 0 -135 -29z"/>
<path d="M554 5951 c-2 -2 -4 -80 -4 -173 l0 -170 -67 9 c-357 44 -492 -92
-479 -480 8 -234 59 -336 195 -389 67 -26 207 -19 288 14 61 26 62 26 65 6 3
-21 2 -21 163 -19 l35 1 0 603 0 602 -96 0 c-53 0 -98 -2 -100 -4z m-30 -517
l26 -6 0 -239 0 -238 -57 -17 c-32 -10 -87 -18 -123 -18 -125 -2 -165 59 -165
254 0 64 6 134 13 157 16 55 55 100 95 112 33 10 166 7 211 -5z"/>
<path d="M2580 5950 c-7 -4 -10 -45 -8 -105 l3 -99 87 -1 c49 -1 93 2 98 5 7
4 10 45 8 105 l-3 99 -88 1 c-48 1 -92 -2 -97 -5z"/>
<path d="M3555 5952 l-31 -3 1 -170 1 -170 -61 7 c-75 10 -199 10 -244 0 -71
-15 -145 -66 -183 -127 -21 -33 -45 -104 -54 -160 -12 -75 -11 -251 3 -322 36
-198 133 -280 320 -273 53 1 106 9 133 20 72 28 91 31 84 12 -5 -13 2 -16 47
-17 97 -2 141 0 148 6 3 4 6 274 6 601 0 522 -2 594 -15 595 -52 3 -129 4
-155 1z m-60 -517 c11 -2 22 -4 25 -4 8 -1 6 -464 -2 -477 -9 -13 -103 -35
-172 -39 -66 -4 -118 23 -141 74 -33 74 -40 244 -14 340 14 52 67 108 106 114
29 5 162 0 198 -8z"/>
<path d="M1410 5611 c-31 -10 -88 -34 -128 -54 l-72 -37 2 42 3 43 -93 1 c-55
1 -95 -2 -99 -9 -3 -6 -7 -199 -7 -429 l-1 -418 28 -1 c35 -1 109 -1 145 0
l27 1 -1 289 0 290 60 24 c80 33 155 57 178 57 10 0 19 6 19 13 4 37 3 207 -1
206 -3 0 -30 -8 -60 -18z"/>
<path d="M1850 5613 c-106 -27 -173 -83 -215 -177 -31 -71 -36 -101 -40 -237
-7 -243 58 -383 204 -441 78 -31 270 -33 349 -3 140 52 211 180 216 393 4 156
-32 301 -91 367 -33 37 -87 73 -138 90 -66 23 -213 27 -285 8z m227 -188 c37
-21 70 -76 80 -131 3 -21 6 -85 5 -141 -3 -180 -52 -246 -184 -244 -84 1 -126
24 -158 87 -23 45 -25 59 -25 184 1 118 4 140 22 176 37 70 77 92 168 89 38 0
71 -8 92 -20z"/>
<path d="M4147 5606 c-74 -25 -115 -56 -149 -112 -46 -74 -59 -130 -63 -279
-6 -259 48 -398 177 -456 45 -20 70 -23 168 -24 107 0 168 5 246 21 l31 6 -2
80 c-2 43 -5 81 -7 83 -3 3 -42 1 -89 -3 -186 -18 -258 2 -298 82 -23 45 -25
62 -25 175 0 172 19 215 112 248 34 13 241 11 282 -2 18 -6 20 -2 21 32 0 21
2 60 3 86 2 26 0 49 -3 52 -4 2 -27 6 -51 9 -25 4 -58 9 -75 13 -16 3 -71 7
-122 8 -72 2 -106 -2 -156 -19z"/>
<path d="M4982 5619 c-190 -32 -283 -175 -283 -439 0 -134 15 -209 58 -292 30
-58 69 -93 143 -127 47 -22 71 -26 166 -28 132 -3 196 12 267 64 94 69 134
179 135 374 1 175 -28 280 -102 357 -33 36 -101 74 -151 86 -48 12 -175 14
-233 5z m188 -187 c68 -27 96 -99 99 -248 2 -108 -12 -177 -44 -220 -39 -51
-122 -71 -203 -48 -89 25 -113 72 -120 235 -7 178 26 264 112 288 39 10 123 7
156 -7z"/>
<path d="M6004 5610 c-33 -10 -70 -23 -82 -29 -30 -16 -42 -14 -42 8 0 16 -9
18 -97 17 l-98 -1 -2 -423 c-2 -475 -8 -439 77 -435 25 0 62 2 83 2 l37 1 0
329 0 328 81 18 c130 28 180 20 217 -32 29 -41 34 -106 34 -390 l0 -253 49 -1
c27 -1 60 -1 74 -1 14 0 37 0 51 1 l26 1 -5 308 c-4 301 -10 377 -28 397 -5 5
-9 16 -9 26 0 28 -77 106 -122 124 -61 24 -170 26 -244 5z"/>
<path d="M2570 5178 c0 -335 3 -428 13 -429 6 0 50 -1 97 -1 l85 0 3 429 2
430 -100 0 -100 0 0 -429z"/>
<path d="M7177 5472 c-62 -20 -138 -88 -167 -149 -17 -36 -23 -66 -24 -123 0
-65 4 -82 29 -129 53 -96 145 -152 251 -152 243 0 373 279 219 467 -70 85
-201 122 -308 86z"/>
<path d="M8967 5472 c-27 -9 -70 -34 -96 -58 -152 -137 -117 -382 66 -470 187
-88 406 53 406 260 0 191 -192 328 -376 268z"/>
<path d="M8072 4948 c-69 -23 -129 -74 -165 -142 -31 -59 -31 -193 1 -253 37
-71 112 -132 182 -150 42 -10 133 -4 180 13 98 35 180 156 180 264 0 102 -68
208 -163 254 -71 35 -138 39 -215 14z"/>
<path d="M9881 4954 c-120 -31 -205 -137 -210 -264 -5 -110 58 -214 158 -265
124 -62 281 -21 359 94 148 219 -50 500 -307 435z"/>
<path d="M9040 4443 c-103 -12 -194 -73 -235 -158 -88 -179 31 -393 227 -410
70 -6 112 4 170 39 195 117 187 390 -15 497 -41 22 -108 36 -147 32z"/>
<path d="M9871 3909 c-165 -50 -246 -237 -171 -395 35 -73 82 -116 158 -144
99 -37 209 -16 289 57 64 60 87 113 87 208 1 70 -3 86 -29 133 -51 93 -130
143 -235 148 -36 2 -80 -1 -99 -7z"/>
<path d="M7516 3855 c-9 -13 -16 -27 -16 -30 0 -11 -140 -213 -190 -276 -189
-232 -461 -428 -725 -523 -224 -79 -266 -83 -880 -84 -286 -1 -543 -1 -571 -2
l-52 0 0 -410 1 -411 661 2 c363 0 695 5 736 10 168 20 406 81 528 135 313
138 514 275 742 504 146 146 148 149 244 274 101 132 258 377 281 439 5 11
-26 31 -127 82 -73 37 -160 82 -193 100 -99 53 -414 215 -418 215 -3 0 -12
-11 -21 -25z"/>
</g>
</svg>
